<svg id="visual" viewBox="0 0 675 990" width="675" height="990" xmlns="http://www.w3.org/2000/svg" xmlns:xlink="http://www.w3.org/1999/xlink" version="1.1"><rect x="0" y="0" width="675" height="990" fill="#0066FF"></rect><defs><linearGradient id="grad1_0" x1="0%" y1="0%" x2="100%" y2="100%"><stop offset="30%" stop-color="#0066ff" stop-opacity="1"></stop><stop offset="70%" stop-color="#0066ff" stop-opacity="1"></stop></linearGradient></defs><defs><linearGradient id="grad2_0" x1="0%" y1="0%" x2="100%" y2="100%"><stop offset="30%" stop-color="#0066ff" stop-opacity="1"></stop><stop offset="70%" stop-color="#0066ff" stop-opacity="1"></stop></linearGradient></defs><g transform="translate(675, 0)"><path d="M0 479.3C-42.9 479.7 -85.9 480.2 -124 463C-162.2 445.7 -195.6 410.9 -211 365.5C-226.4 320.1 -223.9 264.2 -228.4 228.4C-232.9 192.6 -244.5 177 -284.9 164.5C-325.3 152 -394.6 142.6 -431.8 115.7C-469 88.8 -474.1 44.4 -479.3 0L0 0Z" fill="#ffffff"></path></g><g transform="translate(0, 990)"><path d="M0 -479.3C48.5 -489.2 96.9 -499.1 124 -463C151.2 -426.8 157 -344.5 177.5 -307.4C198 -270.4 233.1 -278.6 268.7 -268.7C304.3 -258.8 340.4 -231 339.5 -196C338.6 -161 300.7 -119 317.8 -85.2C334.9 -51.3 407.1 -25.7 479.3 0L0 0Z" fill="#ffffff"></path></g></svg>